<svg viewBox="0 0 30 16" fill="none" xmlns="http://www.w3.org/2000/svg" role="presentation" focusable="false"><path d="M22.021 0H7.98C3.59 0 0 3.6 0 8s3.59 8 7.979 8H22.02C26.41 16 30 12.4 30 8s-3.59-8-7.979-8Z" fill="#fff"></path><path d="M22.021.648c.986 0 1.943.196 2.845.58a7.395 7.395 0 0 1 3.91 3.92c.382.904.578 1.864.578 2.852 0 .988-.196 1.948-.579 2.852a7.417 7.417 0 0 1-3.91 3.92c-.9.384-1.858.58-2.844.58H7.98a7.221 7.221 0 0 1-2.845-.58 7.395 7.395 0 0 1-3.91-3.92A7.274 7.274 0 0 1 .647 8c0-.988.196-1.948.579-2.852a7.417 7.417 0 0 1 3.91-3.92 7.221 7.221 0 0 1 2.844-.58H22.02Zm0-.648H7.98C3.59 0 0 3.6 0 8s3.59 8 7.979 8H22.02C26.41 16 30 12.4 30 8s-3.59-8-7.979-8Z" fill="#3C4043"></path><path d="M14.306 8.568v2.42h-.766V5.012h2.03c.515 0 .954.172 1.313.516.367.344.55.764.55 1.26 0 .508-.183.928-.55 1.268-.355.34-.794.508-1.313.508h-1.264v.004Zm0-2.82v2.084h1.28c.304 0 .559-.104.758-.308.204-.204.307-.452.307-.732a.998.998 0 0 0-.307-.724.992.992 0 0 0-.758-.316h-1.28v-.004ZM19.436 6.764c.567 0 1.014.152 1.34.456.328.304.491.72.491 1.248v2.52h-.73v-.568h-.032c-.315.468-.738.7-1.264.7-.451 0-.826-.132-1.13-.4a1.279 1.279 0 0 1-.454-1c0-.424.16-.76.479-1.008.319-.252.746-.376 1.276-.376.455 0 .83.084 1.121.252v-.176a.873.873 0 0 0-.315-.68 1.08 1.08 0 0 0-.742-.28c-.427 0-.766.18-1.013.544l-.674-.424c.37-.54.921-.808 1.647-.808Zm-.99 2.968c0 .2.085.368.256.5.168.132.367.2.595.2.323 0 .61-.12.861-.36.252-.24.38-.52.38-.844-.24-.188-.571-.284-.998-.284-.311 0-.57.076-.778.224-.211.156-.315.344-.315.564ZM25.432 6.896l-2.553 5.888h-.79l.95-2.06-1.684-3.828h.834L23.4 9.832h.016l1.181-2.936h.834Z" fill="#3C4043"></path><path d="M11.26 8.08c0-.25-.023-.49-.065-.72h-3.21v1.32h1.849c-.075.44-.317.814-.686 1.063v.857h1.1c.643-.597 1.011-1.478 1.011-2.52Z" fill="#4285F4"></path><path d="M9.149 9.743c-.306.207-.701.329-1.163.329-.891 0-1.648-.603-1.918-1.415H4.931v.883a3.417 3.417 0 0 0 3.054 1.888c.924 0 1.7-.305 2.263-.829l-1.1-.856Z" fill="#34A853"></path><path d="M5.96 8.002c0-.228.038-.448.107-.656v-.883H4.93a3.416 3.416 0 0 0-.363 1.539c0 .554.131 1.076.363 1.539l1.136-.883a2.071 2.071 0 0 1-.107-.656Z" fill="#FABB05"></path><path d="M7.986 5.932c.504 0 .955.174 1.312.514l.975-.977a3.279 3.279 0 0 0-2.287-.893 3.417 3.417 0 0 0-3.054 1.887l1.135.883c.271-.812 1.028-1.414 1.92-1.414Z" fill="#E94235"></path></svg>