<svg version="1.2" baseProfile="tiny-ps" xmlns="http://www.w3.org/2000/svg" viewBox="0 0 424 39" width="424" height="39"><defs><clipPath clipPathUnits="userSpaceOnUse" id="cp1"><path d="M0 0h271.71v38.57H0V0z"/></clipPath><clipPath clipPathUnits="userSpaceOnUse" id="cp2"><path d="M0 0h271.71v38.57H0V0z"/></clipPath></defs><style>.shp0{fill:#000}.shp1{fill:#fff}</style><path id="Layer" fill-rule="evenodd" class="shp0" d="M295.31 14.83c1.41 0 2.68.36 3.8 1.08 1.15.71 2.05 1.69 2.7 2.94.66 1.25.98 2.64.98 4.17 0 1.54-.32 2.93-.98 4.18-.65 1.24-1.55 2.23-2.7 2.94-1.12.72-2.39 1.07-3.8 1.07-.94 0-1.82-.19-2.64-.58-.8-.39-1.49-.93-2.09-1.62V31h-4.05V9.37h4.36v7.33c.57-.61 1.24-1.07 1.99-1.38.76-.32 1.57-.49 2.43-.49zm-.95 12.8c1.18 0 2.14-.42 2.88-1.26.74-.86 1.11-1.98 1.11-3.35s-.37-2.47-1.11-3.31c-.74-.86-1.7-1.29-2.88-1.29-1.19 0-2.15.43-2.89 1.29-.73.84-1.1 1.94-1.1 3.31s.37 2.49 1.1 3.35c.74.84 1.7 1.26 2.89 1.26zm17.87-12.89c1.56 0 2.94.35 4.14 1.04 1.21.7 2.14 1.68 2.79 2.95.66 1.25.99 2.67.99 4.26 0 .25-.02.66-.07 1.23h-11.87c.15 1.06.56 1.91 1.26 2.55.72.63 1.58.95 2.61.95.94 0 1.71-.18 2.3-.52.59-.37.98-.88 1.16-1.54h4.39c-.16 1.07-.61 2.03-1.35 2.89-.71.85-1.64 1.53-2.79 2.02-1.13.49-2.35.74-3.68.74-1.58 0-2.99-.34-4.24-1.02a7.544 7.544 0 01-2.94-2.91c-.7-1.27-1.04-2.72-1.04-4.36 0-1.61.35-3.04 1.07-4.29a7.548 7.548 0 012.98-2.95c1.26-.69 2.69-1.04 4.29-1.04zm-.21 3.5c-.95 0-1.77.25-2.49.76-.7.52-1.12 1.23-1.29 2.15h7.3c-.12-.8-.51-1.48-1.16-2.05-.66-.58-1.44-.86-2.36-.86zm26.1-3.41c1.41 0 2.68.36 3.8 1.08 1.15.71 2.05 1.69 2.7 2.94.66 1.25.99 2.64.99 4.17 0 1.54-.33 2.93-.99 4.18-.65 1.24-1.55 2.23-2.7 2.94-1.12.72-2.39 1.07-3.8 1.07-.94 0-1.82-.19-2.64-.58-.8-.39-1.49-.93-2.09-1.62V31h-4.04V9.37h4.35v7.33c.57-.61 1.24-1.07 1.99-1.38.76-.32 1.57-.49 2.43-.49zm-.95 12.8c1.18 0 2.14-.42 2.88-1.26.74-.86 1.11-1.98 1.11-3.35s-.37-2.47-1.11-3.31c-.74-.86-1.7-1.29-2.88-1.29-1.19 0-2.15.43-2.89 1.29-.73.84-1.1 1.94-1.1 3.31s.37 2.49 1.1 3.35c.74.84 1.7 1.26 2.89 1.26zm14.8 3.37h-4.36V15.05h4.36V31zm-2.18-17.86c-.78 0-1.42-.25-1.93-.76-.52-.53-.77-1.18-.77-1.94 0-.77.25-1.42.77-1.93.51-.51 1.15-.76 1.93-.76.76 0 1.39.25 1.9.76.53.51.8 1.16.8 1.93 0 .76-.27 1.41-.8 1.94-.51.51-1.14.76-1.9.76zm16.39 1.91h4.05v14.72c0 1.41-.33 2.66-.99 3.75-.65 1.1-1.59 1.95-2.82 2.54-1.21.62-2.65.92-4.32.92-2.19 0-3.99-.49-5.4-1.47-1.39-.98-2.2-2.28-2.43-3.9h4.51c.45 1.15 1.58 1.72 3.38 1.72 1.14 0 2.06-.29 2.76-.89.69-.59 1.04-1.38 1.04-2.36v-1.32c-.59.61-1.28 1.08-2.05 1.41-.76.33-1.58.49-2.46.49-1.41 0-2.69-.33-3.83-1.01a7.4 7.4 0 01-2.7-2.85c-.64-1.21-.95-2.56-.95-4.05 0-1.5.31-2.85.95-4.05.65-1.21 1.55-2.15 2.7-2.82 1.14-.7 2.42-1.05 3.83-1.05.94 0 1.81.19 2.61.55.82.37 1.52.89 2.12 1.57v-1.9zm-3.78 12.21c1.19 0 2.15-.41 2.89-1.23.73-.82 1.1-1.88 1.1-3.19s-.37-2.37-1.1-3.19c-.74-.84-1.7-1.26-2.89-1.26-1.18 0-2.15.42-2.88 1.26-.74.82-1.11 1.88-1.11 3.19s.37 2.37 1.11 3.19c.73.82 1.7 1.23 2.88 1.23zm22.04-12.21h4.05v14.72c0 1.41-.33 2.66-.98 3.75-.65 1.1-1.6 1.95-2.82 2.54-1.21.62-2.65.92-4.33.92-2.19 0-3.99-.49-5.4-1.47-1.39-.98-2.2-2.28-2.42-3.9h4.51c.45 1.15 1.57 1.72 3.37 1.72 1.15 0 2.07-.29 2.76-.89.7-.59 1.05-1.38 1.05-2.36v-1.32c-.6.61-1.28 1.08-2.06 1.41-.76.33-1.57.49-2.45.49-1.41 0-2.69-.33-3.84-1.01a7.55 7.55 0 01-2.7-2.85c-.63-1.21-.95-2.56-.95-4.05 0-1.5.32-2.85.95-4.05.66-1.21 1.56-2.15 2.7-2.82 1.15-.7 2.43-1.05 3.84-1.05.94 0 1.81.19 2.6.55.82.37 1.53.89 2.12 1.57v-1.9zm-3.77 12.21c1.18 0 2.14-.41 2.88-1.23.74-.82 1.11-1.88 1.11-3.19s-.37-2.37-1.11-3.19c-.74-.84-1.7-1.26-2.88-1.26-1.19 0-2.15.42-2.89 1.26-.73.82-1.1 1.88-1.1 3.19s.37 2.37 1.1 3.19c.74.82 1.7 1.23 2.89 1.23zm18.17-12.52c1.55 0 2.94.35 4.14 1.04 1.21.7 2.14 1.68 2.79 2.95.66 1.25.99 2.67.99 4.26 0 .25-.02.66-.07 1.23h-11.87c.14 1.06.56 1.91 1.26 2.55.72.63 1.59.95 2.61.95.94 0 1.7-.18 2.3-.52.59-.37.98-.88 1.16-1.54h4.39c-.16 1.07-.61 2.03-1.35 2.89-.71.85-1.64 1.53-2.79 2.02-1.13.49-2.35.74-3.68.74-1.58 0-2.99-.34-4.24-1.02a7.544 7.544 0 01-2.94-2.91c-.7-1.27-1.04-2.72-1.04-4.36 0-1.61.35-3.04 1.07-4.29a7.548 7.548 0 012.98-2.95c1.26-.69 2.7-1.04 4.29-1.04zm-.21 3.5c-.94 0-1.77.25-2.49.76-.7.52-1.12 1.23-1.29 2.15h7.3c-.12-.8-.51-1.48-1.16-2.05-.66-.58-1.44-.86-2.36-.86zm20.58-3.19v3.89h-3.32c-.88 0-1.56.29-2.05.86-.49.57-.74 1.36-.74 2.36V31h-4.35V15.05h4.05v2.14c.51-.69 1.12-1.22 1.84-1.59.73-.37 1.53-.55 2.39-.55h2.18z"/><g id="Clip-Path" clip-path="url(#cp1)"><g id="Layer"><path id="Layer" class="shp1" d="M116.79 6.01h6.7l-7.43 24.02h-7.19l-4.37-15.38-4.37 15.38h-7.02L85.69 6.01h6.88l4.42 16.38 4.64-16.38h6.1l4.63 16.38"/><path id="Layer" fill-rule="evenodd" class="shp1" d="M148.21 19.82h-17.59c.41 3.22 2.66 5.26 5.71 5.26 2.82 0 4.6-1.15 5.14-3.09h6.52c-.73 4.85-5.61 8.5-11.61 8.5-7.06 0-12.21-4.94-12.21-12.47 0-7.39 5.19-12.48 12.39-12.48 7.65 0 12.52 6.01 11.65 14.28zm-17.57-4.62h10.83c-.31-2.25-2.35-4.39-5.23-4.39-2.65 0-5.11 1.52-5.6 4.39zm44.44 4.62h-17.59c.4 3.22 2.66 5.26 5.71 5.26 2.82 0 4.59-1.15 5.14-3.09h6.51c-.72 4.85-5.6 8.5-11.61 8.5-7.06 0-12.2-4.94-12.2-12.47 0-7.39 5.19-12.48 12.39-12.48 7.64 0 12.52 6.01 11.65 14.28zm-17.57-4.62h10.83c-.31-2.25-2.35-4.39-5.24-4.39-2.64 0-5.1 1.52-5.59 4.39z"/><path id="Layer" class="shp1" d="M199.85 22.4c0 4.85-3.91 8.09-10.97 8.09-7.29 0-10.97-3.74-11.29-8.5h6.65c.31 1.98 1.86 3.28 4.73 3.28 2.96 0 4.24-.88 4.24-2.45 0-1.71-1.83-2.08-6.61-2.73-2.32-.32-8.47-1.57-8.47-7.11 0-4.53 3.78-7.44 10.52-7.44 7.2 0 10.66 3.98 10.93 8.32h-7.01c-.28-1.9-1.55-3.1-4.01-3.1-3.19 0-3.96.97-3.96 2.22 0 1.62 2.28 2.03 5.96 2.54 3.37.46 9.29 1.34 9.29 6.88zm12.12-16.39h6.01v5.54h-6.01v10.99c0 1.2.63 1.85 1.82 1.85h4.19v5.64h-5.74c-4.14 0-6.38-2.27-6.38-6.47V11.55h-4.18V6.01h4.18V0h6.11"/><path id="Layer" fill-rule="evenodd" class="shp1" d="M271.71 18.02c0 7.06-4.73 12.33-11.11 12.33-2.59 0-4.85-1.03-6.56-2.82v11.04h-6.46V6.01h6.01v3c1.75-2.1 4.18-3.33 7.01-3.33 6.38 0 11.11 5.27 11.11 12.34zm-6.6 0c0-4.02-2.41-6.79-5.92-6.79s-5.92 2.77-5.92 6.79c0 4.01 2.41 6.79 5.92 6.79s5.92-2.78 5.92-6.79zm-21.27 1.8h-17.59c.4 3.22 2.66 5.26 5.71 5.26 2.82 0 4.6-1.15 5.14-3.09h6.52c-.73 4.85-5.61 8.5-11.62 8.5-7.06 0-12.2-4.94-12.2-12.47 0-7.39 5.19-12.48 12.39-12.48 7.65 0 12.52 6.01 11.65 14.28zm-17.57-4.62h10.83c-.31-2.25-2.35-4.39-5.23-4.39-2.65 0-5.11 1.52-5.6 4.39z"/><path id="Layer" class="shp1" d="M52.74 23.92l6.09-15.45c.99-2.5 3.8-3.72 6.26-2.71 2.47 1 3.67 3.84 2.68 6.35l-6.09 15.44c-.99 2.51-3.79 3.72-6.26 2.72-2.47-1-3.67-3.85-2.68-6.35zm-40.05 6.35c-2.47 1-5.27-.21-6.26-2.72L.35 12.11C-.64 9.6.56 6.76 3.03 5.76s5.27.21 6.26 2.72l6.08 15.44c.99 2.5-.21 5.35-2.68 6.35zm34.91 0c-2.47 1-5.28-.21-6.26-2.72l-6.09-15.44c-.99-2.51.21-5.35 2.68-6.35 2.47-1.01 5.27.21 6.26 2.71l6.09 15.45c.98 2.5-.21 5.35-2.68 6.35zm-29.77-6.35l6.1-15.45c.99-2.5 3.79-3.72 6.26-2.71 2.47 1 3.67 3.84 2.68 6.35l-6.09 15.44c-.99 2.51-3.8 3.72-6.27 2.72-2.46-1-3.67-3.85-2.68-6.35z"/><g id="Clip-Path" clip-path="url(#cp2)"><g id="Layer"><path id="Layer" class="shp0" d="M116.79 6.01h6.7l-7.43 24.02h-7.19l-4.37-15.38-4.37 15.38h-7.02L85.69 6.01h6.88l4.42 16.38 4.64-16.38h6.1l4.63 16.38"/><path id="Layer" fill-rule="evenodd" class="shp0" d="M148.21 19.82h-17.59c.41 3.22 2.66 5.26 5.71 5.26 2.82 0 4.6-1.15 5.14-3.09h6.52c-.73 4.85-5.61 8.5-11.61 8.5-7.06 0-12.21-4.94-12.21-12.47 0-7.39 5.19-12.48 12.39-12.48 7.65 0 12.52 6.01 11.65 14.28zm-17.57-4.62h10.83c-.31-2.25-2.35-4.39-5.23-4.39-2.65 0-5.11 1.52-5.6 4.39zm44.44 4.62h-17.59c.4 3.22 2.66 5.26 5.71 5.26 2.82 0 4.59-1.15 5.14-3.09h6.51c-.72 4.85-5.6 8.5-11.61 8.5-7.06 0-12.2-4.94-12.2-12.47 0-7.39 5.19-12.48 12.39-12.48 7.64 0 12.52 6.01 11.65 14.28zm-17.57-4.62h10.83c-.31-2.25-2.35-4.39-5.24-4.39-2.64 0-5.1 1.52-5.59 4.39z"/><path id="Layer" class="shp0" d="M199.85 22.4c0 4.85-3.91 8.09-10.97 8.09-7.29 0-10.97-3.74-11.29-8.5h6.65c.31 1.98 1.86 3.28 4.73 3.28 2.96 0 4.24-.88 4.24-2.45 0-1.71-1.83-2.08-6.61-2.73-2.32-.32-8.47-1.57-8.47-7.11 0-4.53 3.78-7.44 10.52-7.44 7.2 0 10.66 3.98 10.93 8.32h-7.01c-.28-1.9-1.55-3.1-4.01-3.1-3.19 0-3.96.97-3.96 2.22 0 1.62 2.28 2.03 5.96 2.54 3.37.46 9.29 1.34 9.29 6.88zm12.12-16.39h6.01v5.54h-6.01v10.99c0 1.2.63 1.85 1.82 1.85h4.19v5.64h-5.74c-4.14 0-6.38-2.27-6.38-6.47V11.55h-4.18V6.01h4.18V0h6.11"/><path id="Layer" fill-rule="evenodd" class="shp0" d="M271.71 18.02c0 7.06-4.73 12.33-11.11 12.33-2.59 0-4.85-1.03-6.56-2.82v11.04h-6.46V6.01h6.01v3c1.75-2.1 4.18-3.33 7.01-3.33 6.38 0 11.11 5.27 11.11 12.34zm-6.6 0c0-4.02-2.41-6.79-5.92-6.79s-5.92 2.77-5.92 6.79c0 4.01 2.41 6.79 5.92 6.79s5.92-2.78 5.92-6.79zm-21.27 1.8h-17.59c.4 3.22 2.66 5.26 5.71 5.26 2.82 0 4.6-1.15 5.14-3.09h6.52c-.73 4.85-5.61 8.5-11.62 8.5-7.06 0-12.2-4.94-12.2-12.47 0-7.39 5.19-12.48 12.39-12.48 7.65 0 12.52 6.01 11.65 14.28zm-17.57-4.62h10.83c-.31-2.25-2.35-4.39-5.23-4.39-2.65 0-5.11 1.52-5.6 4.39z"/><path id="Layer" d="M52.74 23.92l6.09-15.45c.99-2.5 3.8-3.72 6.26-2.71 2.47 1 3.67 3.84 2.68 6.35l-6.09 15.44c-.99 2.51-3.79 3.72-6.26 2.72-2.47-1-3.67-3.85-2.68-6.35z" fill="#fd6b28"/><path id="Layer" d="M12.69 30.27c-2.47 1-5.27-.21-6.26-2.72L.35 12.11C-.64 9.6.56 6.76 3.03 5.76s5.27.21 6.26 2.72l6.08 15.44c.99 2.5-.21 5.35-2.68 6.35z" fill="#e7ceb7"/><path id="Layer" d="M47.6 30.27c-2.47 1-5.28-.21-6.26-2.72l-6.09-15.44c-.99-2.51.21-5.35 2.68-6.35 2.47-1.01 5.27.21 6.26 2.71l6.09 15.45c.98 2.5-.21 5.35-2.68 6.35z" fill="#9d2b2e"/><path id="Layer" d="M17.83 23.92l6.1-15.45c.99-2.5 3.79-3.72 6.26-2.71 2.47 1 3.67 3.84 2.68 6.35l-6.09 15.44c-.99 2.51-3.8 3.72-6.27 2.72-2.46-1-3.67-3.85-2.68-6.35z" fill="#115e67"/></g></g></g></g></svg>