<?xml version="1.0" standalone="no"?>
<!DOCTYPE svg PUBLIC "-//W3C//DTD SVG 20010904//EN"
 "http://www.w3.org/TR/2001/REC-SVG-20010904/DTD/svg10.dtd">
<svg version="1.0" xmlns="http://www.w3.org/2000/svg"
 width="2208.000000pt" height="2208.000000pt" viewBox="0 0 2208.000000 2208.000000"
 preserveAspectRatio="xMidYMid meet">
<metadata>
Created by potrace 1.14, written by Peter Selinger 2001-2017
</metadata>
<g transform="translate(0.000000,2208.000000) scale(0.100000,-0.100000)"
fill="#000000" stroke="none">
<path d="M1409 15066 c-2 -2 -29 -7 -59 -10 -73 -8 -131 -20 -205 -40 -72 -20
-110 -32 -160 -53 -79 -32 -236 -111 -256 -129 -8 -8 -19 -14 -22 -14 -4 0
-15 -6 -24 -14 -10 -8 -45 -35 -78 -60 -62 -46 -188 -166 -240 -229 -95 -115
-223 -325 -208 -341 4 -3 2 -6 -4 -6 -6 0 -15 -12 -21 -27 -6 -16 -22 -57 -36
-93 -13 -36 -27 -76 -30 -90 -3 -14 -10 -41 -15 -60 -6 -19 -16 -62 -22 -95
-5 -33 -13 -71 -16 -85 -9 -44 -11 -333 -2 -400 17 -127 21 -144 29 -160 4 -8
8 -19 9 -25 4 -41 19 -94 51 -180 41 -108 124 -322 145 -370 31 -71 79 -201
77 -207 -1 -5 2 -8 8 -8 6 0 9 -3 9 -7 -3 -17 14 -73 22 -73 5 0 9 -5 9 -11 0
-9 85 -230 122 -319 6 -14 12 -30 13 -35 2 -10 21 -58 60 -150 7 -16 38 -97
70 -180 31 -82 64 -166 73 -185 9 -19 17 -37 17 -40 1 -3 5 -14 10 -25 4 -11
18 -49 32 -85 13 -36 28 -74 33 -85 5 -11 57 -141 115 -290 59 -148 121 -308
140 -355 18 -47 83 -213 145 -370 61 -157 116 -294 121 -305 4 -11 54 -137
110 -280 55 -143 107 -273 114 -290 14 -33 79 -197 80 -205 1 -3 9 -22 18 -44
9 -21 17 -41 17 -43 0 -3 7 -19 15 -36 8 -18 28 -69 44 -114 17 -45 34 -90 40
-100 5 -10 27 -65 49 -123 78 -203 193 -494 200 -504 3 -6 7 -15 8 -21 4 -23
78 -201 87 -206 5 -3 8 -9 8 -13 -2 -11 61 -131 70 -134 5 -2 9 -9 9 -16 0 -7
9 -21 20 -31 11 -10 20 -22 20 -27 0 -10 59 -88 75 -100 6 -4 7 -8 3 -8 -4 0
32 -40 80 -88 69 -71 185 -166 277 -230 61 -41 244 -130 320 -154 33 -10 67
-22 75 -25 8 -3 24 -8 35 -10 11 -2 37 -8 57 -14 143 -38 457 -46 603 -15 96
21 174 41 201 52 19 8 36 14 39 14 15 1 73 25 165 69 189 91 356 220 495 386
28 33 52 62 55 65 30 27 219 360 205 360 -2 0 5 21 16 47 11 25 21 55 24 67 2
12 4 21 5 21 1 0 3 7 5 15 2 8 11 40 19 70 8 30 18 73 21 95 4 22 9 51 11 65
9 45 12 371 4 403 -5 18 -11 50 -14 72 -15 110 -55 251 -97 342 -10 24 -19 47
-19 53 0 6 -4 18 -10 28 -5 9 -35 82 -66 162 -30 80 -85 219 -121 310 -36 91
-81 206 -100 255 -19 50 -41 104 -48 120 -23 52 -195 494 -195 500 0 3 -9 24
-19 48 -11 23 -40 96 -65 162 -26 66 -51 129 -56 140 -18 41 -81 201 -85 215
-3 14 -26 74 -45 115 -5 11 -30 74 -55 140 -46 117 -204 520 -220 560 -5 11
-7 23 -7 28 1 4 -3 7 -8 7 -5 0 -9 3 -8 8 1 7 -4 24 -22 67 -4 11 -41 103 -80
205 -40 102 -78 199 -85 215 -7 17 -26 66 -43 110 -17 44 -38 98 -48 120 -10
22 -19 46 -20 53 -1 8 -9 28 -17 45 -8 18 -29 70 -46 117 -18 47 -39 96 -46
110 -7 14 -14 30 -15 35 -4 16 -11 36 -41 110 -72 181 -181 461 -183 471 -1 7
-8 20 -16 30 -8 9 -13 19 -11 21 3 4 -10 43 -30 88 -4 11 -22 56 -39 100 -17
44 -37 94 -45 112 -8 17 -15 34 -15 38 0 31 -116 248 -188 353 -61 87 -280
322 -302 322 -5 0 -15 6 -23 14 -47 48 -213 142 -367 209 -52 22 -189 64 -235
71 -22 4 -47 9 -55 11 -44 14 -390 31 -401 21z"/>
<path d="M8959 15066 c-2 -2 -31 -7 -64 -10 -33 -4 -67 -8 -75 -9 -90 -19
-137 -31 -146 -38 -6 -5 -14 -6 -17 -3 -3 3 -12 2 -19 -2 -7 -5 -15 -9 -18 -9
-41 -3 -312 -132 -373 -179 -19 -14 -39 -26 -45 -26 -6 0 -12 -3 -14 -8 -1 -4
-25 -25 -53 -47 -70 -55 -211 -199 -265 -270 -25 -33 -48 -61 -52 -63 -5 -2
-8 -10 -8 -17 0 -8 -6 -20 -12 -27 -16 -17 -54 -82 -75 -128 -8 -19 -20 -38
-25 -41 -5 -3 -10 -10 -10 -15 0 -5 -6 -24 -14 -43 -8 -18 -14 -35 -14 -38 0
-2 -7 -20 -17 -41 -9 -20 -17 -39 -17 -42 -3 -17 -81 -207 -88 -214 -4 -6 -8
-17 -8 -25 0 -9 -6 -27 -13 -41 -7 -14 -21 -47 -31 -75 -10 -27 -25 -66 -34
-85 -8 -19 -15 -41 -15 -47 0 -7 -4 -13 -9 -13 -4 0 -8 -5 -8 -12 0 -10 -39
-116 -60 -163 -5 -11 -32 -78 -60 -150 -28 -71 -54 -139 -59 -150 -5 -11 -15
-36 -21 -55 -15 -41 -32 -83 -50 -125 -8 -16 -14 -33 -14 -37 -1 -3 -4 -10 -8
-14 -5 -4 -8 -13 -8 -19 0 -7 -8 -30 -17 -51 -9 -22 -18 -43 -19 -49 -1 -5
-21 -55 -44 -110 -23 -55 -46 -113 -51 -130 -6 -16 -15 -39 -19 -50 -20 -45
-140 -353 -142 -365 -1 -3 -14 -33 -29 -67 -16 -35 -26 -63 -22 -63 3 0 -1 -7
-8 -16 -7 -9 -14 -21 -15 -28 -3 -15 -82 -217 -94 -238 -6 -10 -10 -22 -10
-27 0 -5 -8 -26 -17 -47 -9 -22 -17 -41 -18 -44 0 -3 -15 -41 -32 -85 -46
-115 -56 -139 -58 -145 -1 -3 -5 -14 -10 -25 -4 -11 -21 -54 -38 -95 -16 -41
-34 -86 -40 -100 -6 -14 -11 -28 -12 -32 -2 -5 -4 -10 -5 -13 -1 -3 -3 -8 -5
-12 -1 -5 -6 -19 -12 -33 -6 -14 -25 -63 -43 -110 -18 -47 -37 -91 -43 -97 -5
-7 -7 -13 -4 -13 3 0 0 -12 -8 -27 -8 -15 -12 -30 -9 -35 3 -4 1 -8 -4 -8 -6
0 -12 -10 -16 -23 -3 -13 -12 -39 -20 -58 -8 -19 -15 -37 -15 -41 -1 -5 -12
-32 -25 -62 -13 -30 -22 -57 -18 -60 3 -3 -1 -6 -8 -6 -7 0 -11 -3 -8 -6 4 -3
-3 -27 -14 -52 -11 -26 -25 -60 -32 -77 -7 -16 -23 -57 -36 -90 -20 -54 -33
-86 -60 -150 -12 -28 -23 -58 -25 -70 -2 -5 -11 -28 -20 -50 -10 -22 -19 -44
-21 -50 -1 -5 -28 -73 -59 -150 -31 -77 -58 -144 -59 -150 -2 -5 -7 -19 -11
-30 -4 -11 -23 -58 -42 -105 -18 -47 -38 -93 -43 -102 -6 -10 -10 -22 -10 -27
0 -5 -7 -26 -16 -47 -9 -22 -16 -40 -16 -41 1 -2 -10 -27 -23 -57 -22 -50 -57
-159 -56 -171 1 -3 -5 -21 -13 -40 -8 -19 -13 -35 -12 -35 2 0 0 -17 -5 -37
-10 -40 -22 -123 -23 -160 -1 -13 -3 -23 -6 -23 -5 0 -5 -238 0 -250 1 -3 3
-18 4 -35 6 -69 17 -145 26 -174 5 -17 9 -35 10 -39 12 -98 123 -369 190 -462
11 -15 20 -33 20 -39 0 -6 4 -11 9 -11 5 0 13 -9 16 -20 3 -11 12 -26 18 -32
7 -7 32 -38 56 -68 49 -61 179 -191 230 -230 18 -14 45 -34 59 -46 41 -31 177
-114 189 -114 6 0 16 -7 23 -15 7 -9 15 -13 18 -10 3 3 15 -1 26 -8 22 -14
179 -77 206 -82 8 -2 35 -9 60 -15 25 -7 52 -14 60 -15 17 -2 85 -15 115 -22
52 -12 326 -9 405 3 47 8 95 15 108 16 12 1 22 6 22 11 0 4 4 6 9 3 10 -7 91
16 186 52 39 14 72 27 75 27 17 3 221 113 230 124 3 4 19 15 35 25 80 50 215
172 310 281 39 45 148 211 187 285 30 58 75 167 220 535 21 55 43 109 47 120
5 11 20 49 35 85 14 36 31 79 37 95 7 17 13 32 13 35 1 3 9 24 18 45 10 22 47
117 83 210 36 94 73 184 80 202 8 17 15 35 15 40 0 4 7 22 16 38 9 17 17 37
19 45 2 8 27 74 55 145 29 72 78 197 111 279 32 82 59 155 59 162 0 8 4 14 9
14 5 0 13 15 16 33 4 17 16 50 26 72 9 22 38 94 64 160 25 66 52 134 59 150 8
17 17 41 21 55 4 14 16 43 25 65 16 35 45 109 78 195 5 14 9 27 9 30 0 3 6 16
13 30 8 14 15 30 16 36 1 6 9 27 17 45 26 61 42 104 39 112 -1 4 3 7 10 7 6 0
8 3 5 7 -4 3 -3 11 1 17 5 6 17 34 27 61 10 28 22 54 26 60 5 5 9 15 9 23 0 8
6 28 14 45 8 18 44 109 81 202 36 94 70 179 75 190 23 49 68 175 62 175 -4 0
-1 4 6 8 7 5 14 17 17 28 3 15 89 235 140 359 5 11 9 22 10 25 1 3 5 14 10 25
4 11 20 52 35 90 15 39 31 79 35 90 5 11 9 22 10 25 6 18 20 51 36 87 10 24
19 47 19 53 0 6 4 18 9 28 6 9 35 82 66 162 60 154 85 217 106 265 7 17 14 37
15 45 2 8 7 23 13 35 22 44 66 231 79 335 13 106 5 390 -13 467 -3 10 -11 48
-20 85 -8 37 -21 84 -29 103 -8 19 -13 35 -11 35 3 0 -6 25 -20 55 -13 30 -22
55 -20 55 3 0 -4 16 -15 35 -11 20 -20 42 -20 50 0 8 -3 15 -8 15 -4 0 -13 15
-21 33 -8 17 -17 34 -20 37 -3 3 -17 25 -30 50 -14 25 -27 47 -30 50 -3 3 -31
39 -62 80 -56 75 -175 198 -246 256 -58 46 -172 124 -182 124 -5 0 -11 4 -13
8 -5 13 -180 95 -278 130 -51 18 -178 50 -225 57 -11 2 -33 6 -50 10 -32 7
-340 17 -346 11z"/>
<path d="M12505 15055 c-93 -14 -100 -15 -175 -35 -51 -13 -155 -46 -185 -59
-99 -43 -208 -102 -286 -154 -101 -68 -118 -82 -207 -167 -100 -95 -252 -288
-252 -319 0 -5 -4 -11 -9 -13 -17 -7 -143 -287 -156 -348 -1 -8 -9 -35 -15
-60 -7 -25 -14 -54 -16 -65 -1 -11 -3 -20 -4 -20 -1 0 -3 -11 -5 -25 -2 -14
-6 -38 -10 -55 -21 -106 -15 -407 12 -520 2 -11 6 -31 8 -45 10 -62 99 -326
116 -344 5 -6 9 -16 9 -23 0 -7 8 -32 19 -56 10 -23 38 -91 61 -152 23 -60 53
-134 66 -163 13 -29 24 -55 24 -59 0 -7 46 -126 60 -158 6 -11 21 -51 36 -90
14 -38 32 -83 39 -100 7 -16 54 -136 104 -265 51 -129 96 -244 101 -255 18
-38 82 -208 84 -221 1 -8 8 -20 14 -26 7 -7 12 -19 12 -28 0 -9 3 -20 8 -24 4
-4 8 -12 8 -17 1 -5 3 -11 4 -14 1 -3 3 -8 4 -12 1 -5 10 -26 20 -48 10 -22
19 -47 21 -55 4 -15 47 -125 65 -165 15 -33 222 -559 224 -570 2 -5 8 -23 16
-40 7 -16 16 -39 20 -50 7 -20 13 -33 42 -105 8 -19 20 -48 26 -65 5 -16 14
-39 18 -50 4 -11 6 -23 6 -27 -1 -5 3 -8 8 -8 6 0 10 -6 10 -14 0 -12 55 -153
107 -279 9 -21 16 -44 16 -52 0 -8 4 -15 9 -15 4 0 8 -9 8 -20 0 -11 4 -20 10
-20 5 0 9 -3 9 -7 -1 -5 0 -10 1 -13 1 -3 3 -12 5 -20 1 -8 11 -33 20 -55 10
-22 19 -45 20 -51 2 -6 10 -27 18 -45 30 -70 57 -142 57 -155 0 -8 5 -14 10
-14 6 0 10 -6 10 -14 0 -12 103 -280 136 -353 8 -17 14 -34 14 -38 0 -4 6 -21
14 -38 34 -76 116 -291 116 -304 0 -7 5 -13 10 -13 6 0 9 -3 9 -7 -1 -5 0 -11
1 -15 1 -5 3 -11 5 -15 1 -5 7 -19 12 -33 6 -14 27 -65 46 -115 103 -266 133
-338 173 -418 24 -49 53 -101 64 -117 11 -15 20 -33 20 -38 0 -6 4 -12 8 -14
5 -1 24 -25 42 -53 70 -102 205 -239 325 -330 141 -107 398 -229 545 -259 14
-3 36 -7 50 -10 176 -39 394 -43 580 -11 17 3 42 7 58 10 84 14 322 99 330
117 2 5 11 8 19 8 22 0 175 94 263 161 98 75 186 161 261 257 33 42 66 84 73
92 7 9 15 22 19 30 4 8 15 29 25 45 57 94 135 260 146 310 2 6 12 42 24 80 11
39 23 84 26 100 2 17 5 30 6 30 1 0 3 11 5 25 2 14 7 52 12 85 12 88 9 349 -6
430 -16 92 -51 235 -63 258 -5 10 -11 26 -13 35 -2 9 -31 87 -65 172 -34 85
-73 184 -86 220 -14 36 -29 74 -34 85 -18 40 -62 150 -65 165 -6 24 -103 263
-115 282 -5 10 -10 26 -10 36 0 10 -4 22 -8 27 -5 6 -28 60 -51 120 -23 61
-46 119 -50 130 -5 11 -21 52 -36 90 -37 94 -50 124 -65 160 -7 17 -14 35 -16
40 -2 11 -90 237 -104 270 -12 26 -36 87 -111 280 -34 88 -66 164 -70 170 -5
5 -9 18 -9 30 0 12 -4 25 -8 30 -5 6 -14 26 -21 45 -7 19 -19 49 -26 65 -21
48 -57 143 -57 152 0 4 -6 19 -13 33 -16 31 -24 50 -70 170 -20 52 -43 109
-50 125 -7 17 -18 46 -25 65 -7 19 -21 54 -31 77 -11 24 -19 49 -19 56 0 7 -4
17 -9 23 -7 8 -61 143 -67 169 -2 6 -28 73 -59 150 -48 116 -122 305 -155 390
-4 11 -13 34 -21 50 -7 17 -13 32 -14 35 -1 3 -5 12 -8 20 -22 52 -51 136 -49
143 1 4 -2 7 -8 7 -5 0 -10 6 -10 13 0 6 -41 116 -91 242 -50 127 -94 239 -99
250 -4 11 -13 34 -20 50 -8 17 -14 35 -16 40 -1 6 -14 38 -28 72 -14 35 -26
69 -26 78 0 8 -3 15 -8 15 -4 0 -13 18 -19 39 -40 127 -193 423 -237 460 -9 8
-16 18 -16 23 0 5 -10 20 -22 33 -13 13 -45 49 -73 80 -102 114 -295 261 -435
330 -69 34 -227 96 -259 102 -13 2 -32 8 -43 14 -10 5 -18 8 -18 5 0 -3 -15 0
-32 5 -18 5 -53 12 -78 16 -25 3 -63 8 -85 12 -66 12 -284 9 -380 -4z"/>
<path d="M20097 15064 c-2 -3 -19 -7 -38 -9 -98 -12 -118 -16 -161 -29 -27 -8
-48 -12 -48 -9 0 3 -7 -1 -17 -8 -9 -8 -17 -12 -17 -10 -2 7 -106 -29 -166
-57 -30 -15 -57 -26 -60 -27 -10 -2 -95 -48 -100 -54 -3 -4 -15 -11 -27 -16
-74 -33 -293 -221 -385 -332 -54 -64 -141 -198 -190 -292 -28 -53 -49 -96 -48
-96 2 0 -11 -33 -31 -80 -7 -16 -13 -32 -14 -35 -2 -12 -79 -209 -97 -250 -11
-25 -21 -49 -22 -55 -2 -5 -8 -22 -14 -37 -6 -14 -36 -91 -67 -170 -31 -79
-65 -161 -75 -184 -11 -23 -20 -47 -20 -53 0 -7 -11 -37 -25 -67 -14 -30 -25
-57 -25 -60 0 -3 -6 -20 -14 -37 -7 -18 -19 -48 -26 -67 -7 -19 -22 -55 -33
-80 -11 -24 -20 -49 -22 -55 -4 -20 -23 -67 -54 -137 -12 -26 -21 -54 -21 -61
0 -7 -4 -17 -8 -22 -5 -6 -17 -32 -27 -60 -9 -27 -23 -63 -30 -80 -7 -16 -22
-55 -34 -85 -12 -30 -26 -64 -30 -75 -5 -11 -16 -40 -26 -65 -44 -114 -75
-191 -85 -215 -7 -18 -20 -50 -25 -65 -1 -3 -5 -14 -10 -25 -79 -198 -105
-263 -105 -267 0 -3 -8 -23 -17 -44 -9 -22 -17 -41 -18 -44 -1 -3 -9 -22 -18
-44 -9 -21 -17 -40 -17 -42 0 -6 -90 -235 -109 -279 -10 -22 -24 -58 -31 -80
-7 -22 -16 -44 -21 -50 -5 -5 -9 -17 -9 -27 0 -10 -4 -18 -10 -18 -5 0 -9 -3
-8 -7 2 -10 -9 -47 -28 -88 -7 -16 -29 -73 -49 -125 -20 -52 -42 -106 -48
-120 -5 -14 -11 -27 -11 -30 -1 -3 -29 -75 -63 -160 -80 -205 -76 -194 -75
-202 1 -5 -3 -8 -10 -8 -6 0 -8 -3 -5 -6 3 -4 1 -16 -5 -28 -7 -11 -13 -23
-14 -26 -1 -7 -14 -41 -24 -65 -5 -11 -33 -83 -63 -160 -30 -77 -58 -149 -62
-160 -5 -11 -9 -22 -10 -25 -1 -3 -7 -18 -14 -35 -7 -16 -19 -47 -27 -68 -7
-20 -20 -52 -27 -70 -8 -17 -27 -63 -42 -102 -15 -38 -34 -84 -41 -102 -8 -17
-14 -36 -14 -42 0 -6 -4 -19 -10 -29 -15 -27 -41 -89 -44 -104 -2 -7 -8 -24
-13 -38 -26 -62 -104 -265 -107 -279 -2 -9 -6 -23 -9 -31 -11 -28 -37 -147
-41 -186 -3 -22 -5 -39 -6 -39 -4 0 -9 -78 -11 -180 -2 -103 6 -235 17 -287 3
-13 6 -32 8 -43 2 -11 6 -29 9 -40 3 -11 8 -31 11 -45 14 -84 111 -325 158
-392 11 -16 16 -28 11 -28 -4 0 -3 -4 2 -8 6 -4 24 -28 40 -54 17 -27 33 -48
38 -48 4 0 7 -5 7 -11 0 -33 231 -269 327 -334 32 -22 60 -42 63 -45 17 -17
72 -50 84 -50 8 0 16 -4 18 -8 3 -10 146 -79 218 -107 48 -18 206 -61 255 -69
17 -2 30 -5 30 -6 0 -5 76 -10 206 -13 156 -5 318 13 434 48 33 10 65 19 72
21 41 8 256 104 261 116 2 4 8 8 14 8 15 0 198 122 198 132 0 4 5 8 10 8 6 0
18 8 28 18 10 9 38 35 63 58 123 114 241 269 323 428 25 47 43 86 41 86 -3 0
4 17 14 38 10 20 42 98 71 172 28 74 56 144 61 155 4 11 18 45 29 75 11 30 25
64 30 75 26 58 100 252 100 263 0 7 5 12 11 12 5 0 8 3 5 8 -2 4 2 22 9 40 8
18 14 35 15 37 0 3 9 22 20 42 11 21 20 43 20 50 0 6 11 38 25 70 13 32 68
168 120 303 53 135 103 259 111 277 7 17 14 34 14 38 0 4 6 21 14 38 8 18 40
97 71 177 93 239 166 424 175 445 5 11 39 97 75 190 37 94 73 184 81 202 8 17
14 35 14 40 1 4 9 26 20 48 11 22 19 46 20 53 0 7 4 20 10 30 18 33 80 192 80
207 0 8 3 15 8 15 4 0 13 19 20 43 8 23 19 56 26 72 12 27 45 109 77 190 7 17
13 35 14 40 3 12 141 358 161 402 8 17 14 37 14 45 0 8 4 18 8 24 5 5 19 36
32 69 12 33 30 78 40 100 9 22 21 51 25 65 4 14 13 39 20 55 45 105 70 171 67
177 -1 5 2 8 6 8 5 0 9 6 9 13 1 19 37 112 46 115 4 2 7 10 7 19 0 8 7 29 14
46 15 33 130 323 173 437 34 89 69 220 78 290 3 19 9 61 13 93 17 115 5 370
-23 497 -11 49 -17 75 -19 87 -1 7 -5 16 -9 19 -4 4 -7 17 -7 29 0 12 -3 25
-7 29 -4 3 -8 13 -9 22 -4 25 -48 129 -59 136 -5 4 -6 8 -2 8 10 0 -82 174
-94 178 -5 2 -9 8 -9 14 0 12 -89 136 -135 187 -133 149 -287 270 -458 360
-42 22 -78 40 -80 40 -2 0 -65 25 -102 40 -41 18 -192 57 -255 67 -14 2 -43 7
-65 10 -47 8 -351 14 -358 8z"/>
</g>
</svg>
